<?xml version="1.0" encoding="iso-8859-1"?>
<!-- Generator: Adobe Illustrator 19.0.0, SVG Export Plug-In . SVG Version: 6.00 Build 0)  -->
<svg version="1.1" id="Layer_1" xmlns="http://www.w3.org/2000/svg" xmlns:xlink="http://www.w3.org/1999/xlink" x="0px" y="0px"
	 viewBox="0 0 512.001 512.001" style="enable-background:new 0 0 512.001 512.001;" xml:space="preserve">
<circle style="fill:#00DFC1;" cx="255.997" cy="255.996" r="255.996"/>
<path style="fill:#00B5A3;" d="M512,255.999c0-19.756-2.241-38.987-6.477-57.457l-75.261-75.261
	c-8.623-9.669-19.861-15.463-30.939-16.003l6.086,46.761l-33.706-33.969c-9.627,12.54-11.336,32.229-2.937,50.365
	c3.47,7.492,8.26,13.836,13.798,18.761l33.401,33.525c-0.036,0.706-0.086,1.406-0.148,2.102l-86.536-86.336
	c-6.428-7.689-16.088-12.584-26.894-12.584c-19.352,0-35.041,15.688-35.041,35.041c0,3.314,0.463,6.52,1.323,9.558l-32.163-32.015
	c-6.428-7.689-16.088-12.584-26.894-12.584c-17.882,0-32.626,13.399-34.764,30.703l-0.022,0.025l-34.529-36.563l-8.851,9.733
	l-18.768-22.523c-15.79,0.77-31.912,12.201-40.311,30.337c-9.74,21.031-5.873,44.138,8.159,55.775
	c0.631,0.764,1.301,1.491,1.994,2.194c-5.428,18.284-5.047,35.037,1.234,49.946c4.196,9.962,10.472,17.714,16.886,23.598l8.329,8.36
	c-0.745,4.452-1.168,9.008-1.168,13.663v18.435c0,2.149,0.109,4.274,0.27,6.384c-17.244,0.955-44.624,6.478-62.809,29.926
	l49.357,49.235c-0.499,2.277-0.915,4.611-1.196,7.029c0,0,68.315,67.514,103.628,103.007c18.927,4.461,38.66,6.832,58.949,6.832
	C397.385,512,512,397.385,512,255.999z"/>
<path style="fill:#FF3C62;" d="M403.93,315.969c0.161-2.11,0.271-4.234,0.271-6.383v-18.435c0-5.182-0.502-10.249-1.415-15.177
	c8.914-6.192,19.374-15.995,25.461-30.444c6.344-15.059,6.679-31.993,1.079-50.491c15.774-10.985,20.529-35.353,10.308-57.425
	c-8.399-18.135-24.52-29.567-40.311-30.337l6.557,50.374l-34.176-37.583c-9.627,12.54-11.336,32.229-2.937,50.365
	c9.107,19.666,27.297,31.449,44.296,30.302c4.182,14.287,3.97,27.065-0.684,38.11c-3.583,8.504-9.301,14.925-14.891,19.583
	c-12.801-29.86-42.522-50.915-76.926-50.915h-1.076v-15.986c10.704-5.997,17.943-17.442,17.943-30.584
	c0-19.352-15.688-35.041-35.041-35.041c-19.352,0-35.041,15.688-35.041,35.041c0,13.141,7.239,24.587,17.943,30.584v15.986h-58.577
	v-15.986c10.704-5.997,17.943-17.442,17.943-30.584c0-19.352-15.689-35.041-35.041-35.041s-35.041,15.688-35.041,35.041
	c0,13.141,7.239,24.587,17.943,30.584v15.986h-1.076c-34.404,0-64.124,21.055-76.925,50.915
	c-5.591-4.658-11.309-11.079-14.891-19.583c-4.653-11.045-4.866-23.823-0.684-38.11c17,1.147,35.189-10.636,44.297-30.302
	c8.399-18.136,6.689-37.826-2.937-50.365l-34.176,37.583l6.557-50.374c-15.79,0.77-31.912,12.201-40.311,30.337
	c-10.222,22.072-5.466,46.44,10.308,57.425c-5.598,18.498-5.264,35.433,1.079,50.491c6.087,14.449,16.547,24.253,25.462,30.444
	c-0.913,4.928-1.415,9.995-1.415,15.177v18.435c0,2.149,0.109,4.274,0.27,6.384c-17.244,0.955-44.624,6.478-62.809,29.926
	l17.493,13.567c14.125-18.211,37.555-21.256,50.045-21.483c1.937,5.324,4.401,10.399,7.329,15.162
	c-11.949,10.803-24.136,26.94-26.706,49.017l21.989,2.561c1.735-14.898,10.169-26.334,18.762-34.344
	c14.995,14.138,35.156,22.847,57.265,22.847h129.124c22.109,0,42.27-8.71,57.265-22.847c8.593,8.01,17.027,19.446,18.762,34.344
	l21.989-2.561c-2.569-22.076-14.756-38.212-26.705-49.015c2.928-4.765,5.393-9.839,7.33-15.163
	c12.491,0.226,35.921,3.272,50.044,21.483l17.494-13.567C448.553,322.45,421.174,316.925,403.93,315.969z"/>
<path style="fill:#FF0335;" d="M403.93,315.969c0.161-2.11,0.271-4.234,0.271-6.383v-18.435c0-5.182-0.502-10.249-1.415-15.177
	c8.914-6.192,19.374-15.995,25.461-30.444c6.344-15.059,6.679-31.993,1.079-50.491c15.774-10.985,20.529-35.353,10.308-57.425
	c-8.399-18.135-24.52-29.567-40.311-30.337l6.557,50.374l-34.176-37.583c-9.627,12.54-11.336,32.229-2.937,50.365
	c9.107,19.666,27.297,31.449,44.296,30.302c4.182,14.287,3.97,27.065-0.684,38.11c-3.583,8.504-9.301,14.925-14.891,19.583
	c-12.801-29.86-42.522-50.915-76.926-50.915h-1.076v-15.986c10.704-5.997,17.943-17.442,17.943-30.584
	c0-19.352-15.688-35.041-35.041-35.041c-19.352,0-35.041,15.688-35.041,35.041c0,13.141,7.239,24.587,17.943,30.584v15.986h-29.291
	v185.711h64.565c22.109,0,42.27-8.71,57.265-22.847c8.593,8.01,17.027,19.446,18.762,34.344l21.989-2.561
	c-2.569-22.076-14.756-38.212-26.705-49.015c2.928-4.765,5.393-9.839,7.33-15.163c12.491,0.226,35.921,3.272,50.044,21.483
	l17.495-13.567C448.553,322.45,421.174,316.925,403.93,315.969z"/>
<circle style="fill:#FFFFFF;" cx="209.614" cy="160.943" r="24.168"/>
<circle style="fill:#3C3B41;" cx="209.614" cy="160.943" r="13.087"/>
<circle style="fill:#E1E1E3;" cx="302.39" cy="160.943" r="24.168"/>
<circle style="fill:#29292B;" cx="302.39" cy="160.943" r="13.087"/>
<g>
</g>
<g>
</g>
<g>
</g>
<g>
</g>
<g>
</g>
<g>
</g>
<g>
</g>
<g>
</g>
<g>
</g>
<g>
</g>
<g>
</g>
<g>
</g>
<g>
</g>
<g>
</g>
<g>
</g>
</svg>
