<?xml version="1.0" encoding="iso-8859-1"?>
<!-- Generator: Adobe Illustrator 19.0.0, SVG Export Plug-In . SVG Version: 6.00 Build 0)  -->
<svg version="1.1" id="Layer_1" xmlns="http://www.w3.org/2000/svg" xmlns:xlink="http://www.w3.org/1999/xlink" x="0px" y="0px"
	 viewBox="0 0 512.001 512.001" style="enable-background:new 0 0 512.001 512.001;" xml:space="preserve">
<path style="fill:#F89890;" d="M21.324,286.004v32.681c0,0,281.988,0,300.037,0c18.05,0,32.681-14.631,32.681-32.681L187.682,275.11
	L21.324,286.004z"/>
<path style="fill:#FFC5BF;" d="M321.361,253.323c-18.05,0-300.037,0-300.037,0v32.681h332.718
	C354.042,267.955,339.411,253.323,321.361,253.323z"/>
<circle style="fill:#F89890;" cx="370.382" cy="286.001" r="16.34"/>
<polygon style="fill:#4D2564;" points="130.723,57.238 130.723,100.813 348.595,204.539 381.276,198.855 381.276,57.238 "/>
<polygon style="fill:#9E52B6;" points="130.723,100.813 130.723,198.855 255.999,220.642 348.595,204.539 348.595,100.813 "/>
<polygon style="fill:#4D2564;" points="471.148,30.004 449.361,49.068 471.148,68.132 503.829,68.132 503.829,30.004 "/>
<rect x="8.17" y="30.004" style="fill:#763C8D;" width="462.978" height="38.128"/>
<circle cx="204.255" cy="125.321" r="8.17"/>
<circle cx="171.574" cy="158.002" r="8.17"/>
<polygon style="fill:#4D2564;" points="106.146,427.576 73.488,460.234 8.171,427.576 "/>
<polygon style="fill:#763C8D;" points="73.488,394.917 106.146,419.411 73.488,443.904 8.171,427.576 "/>
<polygon style="fill:#FFC5BF;" points="171.462,443.904 138.804,492.892 73.488,460.234 73.488,443.904 "/>
<polygon style="fill:#FFD8D4;" points="138.804,362.259 207.866,427.576 138.804,460.234 73.488,443.904 73.488,394.917 "/>
<polygon style="fill:#8A9D29;" points="416.758,438.462 384.1,492.892 138.804,492.892 138.804,460.234 "/>
<path style="fill:#D6BAED;" d="M405.872,427.576l21.772,65.316h43.529c17.962,0,32.658-14.697,32.658-32.658v-32.658H405.872z"/>
<polygon style="fill:#C4CE94;" points="138.804,362.259 138.804,427.576 171.463,447.17 416.758,447.17 384.1,362.259 "/>
<rect x="138.806" y="427.575" style="fill:#A7B65F;" width="256.163" height="32.658"/>
<path style="fill:#E4D1F3;" d="M503.831,394.917v32.658c0,17.962-14.697,32.658-32.658,32.658h-65.301l21.772-97.974h43.529
	C489.135,362.259,503.831,376.955,503.831,394.917z"/>
<rect x="384.097" y="460.234" style="fill:#EAEAEA;" width="43.544" height="32.658"/>
<rect x="384.097" y="362.257" style="fill:#FFFFFF;" width="43.544" height="97.977"/>
<path d="M321.361,310.514H21.323c-4.513,0-8.17,3.658-8.17,8.17s3.657,8.17,8.17,8.17h300.038c15.114,0,28.327-8.256,35.392-20.49
	c3.9,2.619,8.589,4.149,13.629,4.149c10.651,0,19.733-6.831,23.105-16.34h12.299c40.546,0,73.532-32.986,73.532-73.532
	c0-4.512-3.657-8.17-8.17-8.17c-4.513,0-8.17,3.658-8.17,8.17c0,31.536-25.657,57.191-57.191,57.191h-12.299
	c-3.373-9.509-12.455-16.34-23.105-16.34c-5.04,0-9.729,1.531-13.629,4.149c-7.066-12.234-20.278-20.49-35.392-20.49H21.323
	c-4.513,0-8.17,3.658-8.17,8.17s3.657,8.17,8.17,8.17h300.038c10.651,0,19.733,6.831,23.105,16.34H21.323
	c-4.513,0-8.17,3.658-8.17,8.17c0,4.512,3.657,8.17,8.17,8.17h323.143C341.094,303.684,332.012,310.514,321.361,310.514z
	 M370.382,277.833c4.506,0,8.17,3.665,8.17,8.17s-3.665,8.17-8.17,8.17s-8.17-3.665-8.17-8.17S365.877,277.833,370.382,277.833z"/>
<path d="M8.17,76.302h364.935v115.681l-117.106,20.366l-117.106-20.366v-91.171c0-4.512-3.657-8.17-8.17-8.17s-8.17,3.658-8.17,8.17
	v98.042c0,3.972,2.856,7.368,6.77,8.049L254.6,228.691c0.463,0.081,0.931,0.121,1.4,0.121c0.468,0,0.937-0.04,1.4-0.121
	l125.276-21.787c3.914-0.681,6.77-4.077,6.77-8.049V76.302h73.532v111.659c0,4.512,3.657,8.17,8.17,8.17
	c4.513,0,8.17-3.658,8.17-8.17V76.302h24.511c4.513,0,8.17-3.658,8.17-8.17V30.004c0-4.512-3.657-8.17-8.17-8.17h-24.511v-2.723
	c0-4.512-3.657-8.17-8.17-8.17c-4.513,0-8.17,3.658-8.17,8.17v2.723H8.17c-4.513,0-8.17,3.658-8.17,8.17v38.128
	C0,72.644,3.657,76.302,8.17,76.302z M495.659,38.174v21.787h-16.34V38.174H495.659z M16.34,38.174h446.637v21.787H16.34V38.174z"/>
<path d="M471.172,354.089H138.805c-0.306,0-0.606,0.02-0.903,0.052c-0.074,0.009-0.147,0.024-0.221,0.034
	c-0.227,0.032-0.451,0.069-0.671,0.118c-0.083,0.019-0.163,0.042-0.245,0.063c-0.211,0.054-0.419,0.115-0.624,0.186
	c-0.083,0.028-0.163,0.059-0.245,0.089c-0.205,0.078-0.404,0.164-0.6,0.257c-0.048,0.023-0.098,0.038-0.145,0.062L4.518,420.268
	c-2.767,1.383-4.516,4.213-4.516,7.307s1.748,5.924,4.516,7.307l130.633,65.316c0.047,0.024,0.097,0.039,0.145,0.062
	c0.196,0.094,0.395,0.18,0.6,0.257c0.082,0.032,0.163,0.061,0.245,0.089c0.205,0.071,0.413,0.132,0.624,0.186
	c0.082,0.021,0.162,0.045,0.245,0.063c0.22,0.049,0.444,0.086,0.671,0.118c0.074,0.01,0.147,0.025,0.221,0.034
	c0.296,0.033,0.597,0.052,0.903,0.052h332.368c22.513,0,40.828-18.315,40.828-40.828v-65.316
	C512,372.404,493.685,354.089,471.172,354.089z M130.635,479.671l-48.975-24.488v-55.217l48.975-24.488V479.671z M146.975,370.429
	h228.954v48.975H171.462c-4.513,0-8.17,3.658-8.17,8.17s3.657,8.17,8.17,8.17h204.466v24.488c0,4.512,3.657,8.17,8.17,8.17
	s8.17-3.658,8.17-8.17v-89.805h27.203V484.72H146.975V370.429z M65.319,408.136v38.877l-38.877-19.439L65.319,408.136z
	 M495.66,460.234c0,13.503-10.985,24.488-24.488,24.488h-35.36V370.429h35.359c13.503,0,24.488,10.985,24.488,24.488L495.66,460.234
	L495.66,460.234z"/>
<g>
</g>
<g>
</g>
<g>
</g>
<g>
</g>
<g>
</g>
<g>
</g>
<g>
</g>
<g>
</g>
<g>
</g>
<g>
</g>
<g>
</g>
<g>
</g>
<g>
</g>
<g>
</g>
<g>
</g>
</svg>
