<svg xmlns="http://www.w3.org/2000/svg" xmlns:xlink="http://www.w3.org/1999/xlink" id="Layer_1" x="0" y="0" version="1.1" viewBox="0 0 297 297" xml:space="preserve" style="enable-background:new 0 0 297 297"><g><g><g><g><circle style="fill:#d95459" cx="148.5" cy="148.5" r="148.5"/></g></g></g><path style="fill:#b23f47" d="M296.994,148.006L223.577,74.59L74.609,223.558l73.436,73.436c0.152,0,0.302,0.006,0.454,0.006 c82.014,0,148.5-66.486,148.5-148.5C297,148.335,296.994,148.171,296.994,148.006z"/><g><path style="fill:#ecf0f1" d="M93.334,66h110.333C218.762,66,231,78.238,231,93.334v110.333C231,218.762,218.762,231,203.667,231 H93.334C78.238,231,66,218.762,66,203.667V93.334C66,78.238,78.238,66,93.334,66z"/></g><g><path style="fill:#c63c22" d="M208.5,132.031c0-16.569-13.431-30-30-30s-30,13.431-30,30c0-16.569-13.431-30-30-30 s-30,13.431-30,30c0,40,60,70.938,60,70.938S208.5,171.823,208.5,132.031z"/></g></g></svg>