<?xml version="1.0" encoding="iso-8859-1"?>
<!-- Generator: Adobe Illustrator 19.0.0, SVG Export Plug-In . SVG Version: 6.00 Build 0)  -->
<svg version="1.1" id="Layer_1" xmlns="http://www.w3.org/2000/svg" xmlns:xlink="http://www.w3.org/1999/xlink" x="0px" y="0px"
	 viewBox="0 0 508 508" style="enable-background:new 0 0 508 508;" xml:space="preserve">
<circle style="fill:#324A5E;" cx="254" cy="254" r="254"/>
<path style="fill:#FFD05B;" d="M42.4,404.4l-8-8.8l29.2-26.8c3.6-3.6,6.4-8,7.2-12.8c2.8-12.4,11.2-22.4,23.2-26.8s25.2-2,34.8,6.4
	l4.8,4l-7.6,9.2l-4.8-4c-6.4-5.6-15.2-6.8-23.2-4s-14,9.6-15.6,18c-1.6,7.6-5.2,14-10.8,19.2L42.4,404.4z"/>
<path style="fill:#F9B54C;" d="M405.2,453.6h-6.4v-86.4c0-18-14.4-32.4-32.4-32.4H358V211.2H152.4v123.6h-8.8
	c-18,0-32.4,14.4-32.4,32.4v86.4h-6.4c-8.8,0-15.6,7.2-15.6,15.6c0,8.8,7.2,15.6,15.6,15.6h300c8.8,0,15.6-7.2,15.6-15.6
	C420.8,460.4,413.6,453.6,405.2,453.6z"/>
<path style="fill:#FFD05B;" d="M342.8,276.8c-3.6-44.4-40.8-79.6-85.2-80.4c-50-1.2-90.4,38.8-90.4,88.4c0,31.6,16.4,59.2,41.2,74.8
	v104.8c-6.4,4.8-10.8,12.4-11.2,21.2H254h2.4h56.8c-0.8-8.4-4.8-16-11.2-21.2V359.2C328.8,342.4,346,311.6,342.8,276.8z
	 M255.2,478.4c-1.2-4.4-3.6-8-6.4-11.2v-79.6c0-3.6,2.8-6.4,6.4-6.4c3.6,0,6.4,2.8,6.4,6.4v79.6
	C258.8,470.4,256.4,474.4,255.2,478.4z"/>
<path style="fill:#FF7058;" d="M391.6,206c8.8,8,12,20.8,7.2,32.4c-4.8,11.6-16.4,18.4-28,17.6c5.2,10.8,3.2,24-5.6,32.8
	c-8.8,8.8-22,10.8-32.8,5.6c0.8,12-6,23.2-17.6,28s-24.4,1.6-32.4-7.2c-4,11.2-14.8,19.2-27.2,19.2c-12.4,0-23.2-8-27.2-19.2
	c-8,8.8-20.8,12-32.4,7.2s-18.4-16.4-17.6-28c-10.8,5.2-24,3.2-32.8-5.6c-8.8-8.8-10.8-22-5.6-32.8c-12,0.8-23.2-6-28-17.6
	S110,214,118.8,206c-11.2-4-19.2-14.8-19.2-27.2s8-23.2,19.2-27.2c-8.8-8-12-20.8-7.2-32.4s16.4-18.4,28-17.6
	c-5.2-10.8-3.2-24,5.6-32.8s22-10.8,32.8-5.6c-0.8-12,6-23.2,17.6-28s24.4-1.6,32.4,7.2c4-11.2,14.4-19.2,27.2-19.2
	c12.4,0,23.2,8,27.2,19.2c8-8.8,20.8-12,32.4-7.2s18.4,16.4,17.6,28c10.8-5.2,24-3.2,32.8,5.6s10.8,22,5.6,32.8
	c12-0.8,23.2,6,28,17.6s1.6,24.4-7.2,32.4c11.2,4,19.2,14.4,19.2,27.2C410.8,191.2,402.8,202,391.6,206z"/>
<path style="fill:#FFD05B;" d="M339.2,88.8c-6-5.2-18.8,0-29.6,11.2c-14.8-9.6-34-15.6-54.8-15.6s-40,6-54.8,15.6
	c-10.8-11.2-23.6-16.4-29.6-11.2c-6.4,5.2-2.8,20,7.6,33.2c-5.6,9.2-9.2,19.2-9.2,30c0,14,5.2,26.8,14.4,37.2
	c11.2,13.2,16.4,30.8,15.6,48c-1.2,20,4.4,35.6,15.6,39.6c4,1.2,8.4,1.2,13.2-0.8c17.2-6.8,36-6.8,53.2,0c4.4,1.6,9.2,2,13.2,0.8
	c11.2-4,16.8-19.6,15.6-39.6c-0.8-17.6,4.4-34.8,15.6-48c9.2-10.8,14.4-23.6,14.4-37.6c0-10.8-3.2-21.2-9.2-30
	C342,108.8,345.6,94,339.2,88.8z"/>
<g>
	<path style="fill:#324A5E;" d="M275.6,222.8c0,11.2-9.2,20.4-20.4,20.4c-11.2,0-20.4-9.2-20.4-20.4s9.2-8,20.4-8
		C266.4,214.8,275.6,211.6,275.6,222.8z"/>
	<circle style="fill:#324A5E;" cx="282.8" cy="165.2" r="10.4"/>
</g>
<ellipse transform="matrix(0.8181 -0.5751 0.5751 0.8181 -41.3384 189.3163)" style="fill:#FFFFFF;" cx="278.582" cy="160.001" rx="3.6" ry="1.6"/>
<circle style="fill:#324A5E;" cx="227.2" cy="165.2" r="10.4"/>
<ellipse transform="matrix(0.8181 -0.5751 0.5751 0.8181 -51.5889 157.3137)" style="fill:#FFFFFF;" cx="222.87" cy="160.203" rx="3.6" ry="1.6"/>
<path style="fill:#FF7058;" d="M34,389.2c-6.8,0-12.4,4.4-14.8,10.4l-9.6,29.2l29.2-9.6c6.4-2,10.4-8,10.4-14.8l0,0
	C49.6,396,42.4,389.2,34,389.2z"/>
<g>
</g>
<g>
</g>
<g>
</g>
<g>
</g>
<g>
</g>
<g>
</g>
<g>
</g>
<g>
</g>
<g>
</g>
<g>
</g>
<g>
</g>
<g>
</g>
<g>
</g>
<g>
</g>
<g>
</g>
</svg>
