<?xml version="1.0" encoding="iso-8859-1"?>
<!-- Generator: Adobe Illustrator 19.0.0, SVG Export Plug-In . SVG Version: 6.00 Build 0)  -->
<svg version="1.1" id="Layer_1" xmlns="http://www.w3.org/2000/svg" xmlns:xlink="http://www.w3.org/1999/xlink" x="0px" y="0px"
	 viewBox="0 0 473.957 473.957" style="enable-background:new 0 0 473.957 473.957;" xml:space="preserve">
<path style="fill:#F4DF81;" d="M0.002,236.982C0.002,106.095,106.104,0,236.973,0c130.884,0,236.982,106.095,236.982,236.982
	c0,130.877-106.098,236.975-236.982,236.975C106.104,473.961,0.002,367.859,0.002,236.982z"/>
<g>
	<g>
		<path style="fill:#CAB252;" d="M230.934,256.896c-37.365,0-43.88-121.369-27.128-138.117c0,0,16.924,12.093,27.128,12.093
			c10.582,0,27.951-11.005,27.951-11.005C280.988,141.971,268.307,256.896,230.934,256.896z"/>
		<path style="fill:#CAB252;" d="M230.934,95.868c-1.882,0-7.248-7.356-8.924-7.356c-18.361,0-22.136,22.387-18.204,26.323
			c0,0,16.924,13.242,27.128,13.242c10.582,0,27.951-11.925,27.951-11.925c3.648-3.652-1.055-27.536-18.81-27.536
			C238.051,88.613,233.272,95.868,230.934,95.868z"/>
	</g>
	<path style="fill:#CAB252;" d="M333.376,112.897c-0.202-0.296-0.554-0.445-0.902-0.389l-25.283,4.292
		c-0.348,0.06-0.629,0.314-0.722,0.659l-5.688,21.437l-43.988-0.887c-0.236,0-0.505,0.097-0.681,0.284
		c-0.172,0.187-0.258,0.438-0.236,0.692l0.902,10.836c0.037,0.438,0.382,0.782,0.819,0.823l49.208,4.513
		c0.03,0.004,0.056,0.004,0.082,0.004c0.307,0,0.595-0.157,0.763-0.419l25.732-40.86
		C333.578,113.582,333.571,113.193,333.376,112.897z"/>
	<path style="fill:#CAB252;" d="M318.776,78.102c0,0,7.596,21.422-0.816,26.615c-8.412,5.19-23.787-11.424-23.787-11.424
		c-1.994,11.974,5.789,24.584,17.384,28.168c11.6,3.581,22.615-3.218,24.61-15.192C338.162,94.297,330.376,81.683,318.776,78.102z"
		/>
	<path style="fill:#CAB252;" d="M131.66,112.897c0.195-0.296,0.55-0.445,0.902-0.389l25.28,4.292
		c0.352,0.06,0.632,0.314,0.722,0.659l5.688,21.437l43.988-0.887c0.236,0,0.505,0.097,0.677,0.284
		c0.18,0.187,0.266,0.438,0.243,0.692l-0.906,10.836c-0.034,0.438-0.378,0.782-0.816,0.823l-49.212,4.513
		c-0.03,0.004-0.056,0.004-0.079,0.004c-0.311,0-0.599-0.157-0.767-0.419l-25.732-40.86
		C131.455,113.582,131.458,113.193,131.66,112.897z"/>
	<g>
		<path style="fill:#CAB252;" d="M146.253,78.102c0,0-7.596,21.422,0.816,26.615c8.415,5.19,23.79-11.424,23.79-11.424
			c1.994,11.974-5.789,24.584-17.384,28.168c-11.6,3.581-22.615-3.218-24.606-15.192C126.871,94.297,134.654,81.683,146.253,78.102z
			"/>
		<circle style="fill:#CAB252;" cx="180.827" cy="348.836" r="21.156"/>
		<path style="fill:#CAB252;" d="M163.462,338.823c0,0,8.337-31.083,22.743-35.629c0,0-12.887,20.468,9.093,39.416L163.462,338.823z
			"/>
	</g>
	
		<ellipse transform="matrix(-0.3908 -0.9205 0.9205 -0.3908 102.7966 554.7463)" style="fill:#CAB252;" cx="234.975" cy="243.356" rx="27.536" ry="29.935"/>
	
		<ellipse transform="matrix(-0.5234 -0.8521 0.8521 -0.5234 141.3659 671.7417)" style="fill:#CAB252;" cx="258.548" cy="296.335" rx="37.13" ry="25.508"/>
	
		<ellipse transform="matrix(0.3488 -0.9372 0.9372 0.3488 -147.5601 479.6419)" style="fill:#CAB252;" cx="271.366" cy="346.004" rx="21.912" ry="20.561"/>
	
		<ellipse transform="matrix(0.9978 -0.0657 0.0657 0.9978 -24.1556 17.1611)" style="fill:#CAB252;" cx="248.834" cy="375.833" rx="19.939" ry="19.266"/>
	
		<ellipse transform="matrix(0.9121 0.4099 -0.4099 0.9121 179.6497 -56.7815)" style="fill:#CAB252;" cx="222.26" cy="390.618" rx="15.842" ry="15.39"/>
	<path style="fill:#CAB252;" d="M191.147,387.425c-6.376-4.501-7.88-13.347-3.356-19.757c4.52-6.402,13.354-7.948,19.734-3.442
		c6.376,4.494,7.88,13.343,3.356,19.749C206.361,390.381,197.527,391.926,191.147,387.425z"/>
	<path style="fill:#CAB252;" d="M237.25,168.407c6.526-1.31,13.036-2.047,19.555-2.638c6.514-0.572,13.025-0.917,19.54-1.085
		c6.503-0.161,13.01-0.187,19.517-0.011c6.499,0.161,13.006,0.468,19.51,0.984l-3.151,1.646c1.186-1.463,2.398-2.907,3.633-4.337
		c1.242-1.426,2.5-2.836,3.802-4.224c2.593-2.769,5.276-5.485,8.269-7.989c-1.201,3.712-2.728,7.21-4.326,10.653
		c-0.804,1.721-1.643,3.42-2.507,5.096c-0.864,1.68-1.759,3.341-2.672,4.988c-0.539,0.977-1.523,1.553-2.567,1.613l-0.58,0.034
		c-6.507,0.348-13.018,0.49-19.525,0.49c-6.511,0.011-13.01-0.18-19.517-0.509c-6.499-0.329-13.003-0.838-19.498-1.579
		C250.234,170.786,243.742,169.881,237.25,168.407z"/>
	<path style="fill:#CAB252;" d="M241.276,178.509c6.638-0.468,13.197-0.374,19.73-0.131c6.533,0.258,13.033,0.745,19.51,1.403
		c6.477,0.67,12.935,1.471,19.364,2.473c6.432,0.992,12.842,2.122,19.229,3.457l-3.334,1.235c1.362-1.302,2.743-2.578,4.153-3.839
		c1.414-1.257,2.84-2.5,4.303-3.708c2.93-2.417,5.934-4.767,9.224-6.874c-1.669,3.529-3.626,6.806-5.65,10.021
		c-1.014,1.605-2.069,3.177-3.136,4.737c-1.07,1.557-2.167,3.091-3.282,4.606c-0.662,0.898-1.714,1.343-2.75,1.272l-0.58-0.041
		c-6.503-0.483-12.98-1.171-19.427-1.998c-6.455-0.816-12.879-1.833-19.293-2.982c-6.402-1.156-12.786-2.488-19.139-4.045
		C253.856,182.517,247.529,180.796,241.276,178.509z"/>
	<path style="fill:#CAB252;" d="M241.403,191.377c6.649,0.12,13.171,0.79,19.663,1.613c6.485,0.834,12.917,1.89,19.308,3.121
		c6.395,1.239,12.756,2.604,19.072,4.168c6.32,1.553,12.606,3.248,18.844,5.141l-3.424,0.935c1.47-1.175,2.963-2.327,4.475-3.457
		c1.515-1.126,3.046-2.238,4.614-3.311c3.128-2.148,6.327-4.228,9.792-6.032c-1.972,3.368-4.213,6.458-6.514,9.482
		c-1.152,1.508-2.335,2.982-3.536,4.442c-1.201,1.459-2.428,2.889-3.674,4.299c-0.741,0.834-1.819,1.19-2.848,1.029l-0.58-0.097
		c-6.436-1.055-12.823-2.305-19.177-3.701c-6.357-1.384-12.67-2.964-18.952-4.677c-6.279-1.714-12.52-3.607-18.705-5.717
		C253.575,196.485,247.42,194.214,241.403,191.377z"/>
	<path style="fill:#CAB252;" d="M241.804,202.154c6.567,1.07,12.92,2.672,19.229,4.408c6.301,1.755,12.516,3.727,18.664,5.856
		c6.151,2.144,12.247,4.404,18.275,6.859c6.032,2.436,12.011,5.018,17.912,7.79l-3.521,0.434c1.628-0.954,3.267-1.882,4.924-2.78
		c1.661-0.898,3.341-1.777,5.04-2.619c3.409-1.68,6.874-3.274,10.559-4.565c-2.436,3.05-5.093,5.785-7.809,8.445
		c-1.351,1.328-2.739,2.619-4.135,3.891c-1.399,1.265-2.821,2.507-4.254,3.727c-0.853,0.722-1.972,0.917-2.964,0.61l-0.558-0.18
		c-6.219-1.961-12.367-4.116-18.451-6.41c-6.095-2.282-12.116-4.752-18.088-7.341c-5.968-2.597-11.873-5.362-17.695-8.34
		C253.115,208.949,247.353,205.817,241.804,202.154z"/>
	<path style="fill:#CAB252;" d="M224.939,168.407c-6.488,1.474-12.988,2.38-19.483,3.132c-6.492,0.741-12.995,1.246-19.495,1.579
		c-6.503,0.326-13.01,0.52-19.517,0.509c-6.503,0-13.014-0.142-19.525-0.49l-0.561-0.034c-1.115-0.06-2.073-0.711-2.582-1.613
		c-0.917-1.646-1.807-3.308-2.672-4.988c-0.857-1.68-1.703-3.375-2.503-5.096c-1.609-3.442-3.124-6.941-4.333-10.653
		c2.993,2.5,5.676,5.22,8.277,7.989c1.298,1.388,2.556,2.799,3.794,4.224c1.242,1.429,2.447,2.877,3.637,4.337l-3.147-1.646
		c6.499-0.513,13.003-0.823,19.506-0.984c6.503-0.176,13.014-0.15,19.521,0.011c6.511,0.168,13.018,0.513,19.532,1.085
		C211.899,166.356,218.414,167.097,224.939,168.407z"/>
	<path style="fill:#CAB252;" d="M220.91,178.509c-6.245,2.286-12.572,4.011-18.926,5.59c-6.346,1.557-12.73,2.885-19.139,4.045
		c-6.406,1.149-12.831,2.166-19.289,2.982c-6.455,0.831-12.924,1.515-19.424,1.998l-0.561,0.041
		c-1.115,0.082-2.144-0.442-2.765-1.272c-1.119-1.515-2.219-3.05-3.285-4.606c-1.07-1.56-2.114-3.128-3.132-4.737
		c-2.028-3.21-3.985-6.488-5.654-10.021c3.289,2.107,6.29,4.456,9.224,6.874c1.467,1.209,2.892,2.451,4.299,3.708
		c1.411,1.257,2.795,2.537,4.157,3.839l-3.33-1.235c6.38-1.336,12.789-2.466,19.222-3.457c6.428-1.003,12.887-1.8,19.367-2.473
		c6.47-0.659,12.977-1.149,19.51-1.403C207.72,178.135,214.279,178.042,220.91,178.509z"/>
	<path style="fill:#CAB252;" d="M220.794,191.377c-6.021,2.833-12.172,5.104-18.353,7.233c-6.193,2.11-12.43,4.004-18.713,5.717
		c-6.282,1.71-12.595,3.293-18.948,4.677c-6.357,1.396-12.745,2.645-19.18,3.701l-0.554,0.09c-1.1,0.18-2.178-0.251-2.87-1.021
		c-1.246-1.411-2.473-2.84-3.674-4.299c-1.201-1.456-2.391-2.93-3.54-4.442c-2.301-3.023-4.539-6.114-6.511-9.482
		c3.461,1.804,6.657,3.884,9.792,6.032c1.564,1.074,3.098,2.185,4.61,3.311c1.515,1.13,3.005,2.282,4.479,3.457l-3.427-0.935
		c6.241-1.893,12.528-3.588,18.844-5.141c6.316-1.564,12.677-2.93,19.072-4.168c6.395-1.231,12.827-2.29,19.311-3.121
		C207.615,192.171,214.141,191.501,220.794,191.377z"/>
	<path style="fill:#CAB252;" d="M220.389,202.154c-5.553,3.663-11.315,6.795-17.13,9.789c-5.826,2.978-11.727,5.744-17.695,8.34
		c-5.976,2.589-11.992,5.059-18.088,7.341c-6.092,2.294-12.232,4.445-18.447,6.41l-0.543,0.168
		c-1.066,0.341-2.189,0.067-2.986-0.599c-1.433-1.216-2.859-2.458-4.254-3.727c-1.399-1.272-2.78-2.563-4.138-3.891
		c-2.713-2.66-5.369-5.396-7.805-8.445c3.682,1.291,7.147,2.885,10.552,4.565c1.706,0.842,3.383,1.717,5.044,2.619
		c1.661,0.898,3.304,1.826,4.928,2.78l-3.521-0.434c5.901-2.773,11.876-5.351,17.912-7.79c6.021-2.455,12.127-4.718,18.271-6.859
		c6.155-2.129,12.37-4.105,18.664-5.856C207.462,204.825,213.823,203.224,220.389,202.154z"/>
</g>
<g>
</g>
<g>
</g>
<g>
</g>
<g>
</g>
<g>
</g>
<g>
</g>
<g>
</g>
<g>
</g>
<g>
</g>
<g>
</g>
<g>
</g>
<g>
</g>
<g>
</g>
<g>
</g>
<g>
</g>
</svg>
