<svg width="100%" height="100%" id="svg" viewBox="0 0 1440 500" xmlns="http://www.w3.org/2000/svg" class="transition duration-300 ease-in-out delay-150"><path d="M 0,500 C 0,500 0,166 0,166 C 144.67857142857144,166.57142857142856 289.3571428571429,167.14285714285714 415,179 C 540.6428571428571,190.85714285714286 647.2500000000001,214 740,205 C 832.7499999999999,196 911.6428571428571,154.85714285714283 1026,143 C 1140.357142857143,131.14285714285717 1290.1785714285716,148.57142857142858 1440,166 C 1440,166 1440,500 1440,500 Z" stroke="none" stroke-width="0" fill="#ffe0e8" class="transition-all duration-300 ease-in-out delay-150 path-0" transform="rotate(-180 720 250)"></path><path d="M 0,500 C 0,500 0,333 0,333 C 102.42857142857142,349.8571428571429 204.85714285714283,366.7142857142857 330,377 C 455.14285714285717,387.2857142857143 603.0000000000001,391.00000000000006 715,384 C 826.9999999999999,376.99999999999994 903.1428571428571,359.2857142857143 1018,349 C 1132.857142857143,338.7142857142857 1286.4285714285716,335.8571428571429 1440,333 C 1440,333 1440,500 1440,500 Z" stroke="none" stroke-width="0" fill="#ff7397" class="transition-all duration-300 ease-in-out delay-150 path-1" transform="rotate(-180 720 250)"></path></svg>